<svg width="80" height="80" viewBox="0 0 80 80" fill="none" xmlns="http://www.w3.org/2000/svg">
<mask id="mask0_274_85" style="mask-type:luminance" maskUnits="userSpaceOnUse" x="17" y="4" width="46" height="72">
<path d="M60 61.6667L55.35 72.3334C55.2201 72.631 55.0061 72.8841 54.7343 73.0618C54.4625 73.2394 54.1447 73.3338 53.82 73.3334H26.1783C25.8542 73.3332 25.5371 73.2385 25.266 73.0609C24.9948 72.8833 24.7813 72.6304 24.6517 72.3334L20 61.6667M20 18.3334L24.65 7.66669C24.7799 7.36908 24.9939 7.1159 25.2657 6.93824C25.5375 6.76059 25.8553 6.66621 26.18 6.66669H53.82C54.1444 6.66653 54.4619 6.76107 54.7333 6.9387C55.0048 7.11633 55.2186 7.36934 55.3483 7.66669L60 18.3334" stroke="white" stroke-width="4" stroke-linecap="round" stroke-linejoin="round"/>
<path d="M20 20C20 19.116 20.3512 18.2681 20.9763 17.643C21.6014 17.0179 22.4493 16.6667 23.3333 16.6667H56.6667C57.5507 16.6667 58.3986 17.0179 59.0237 17.643C59.6488 18.2681 60 19.116 60 20V60C60 60.8841 59.6488 61.7319 59.0237 62.357C58.3986 62.9822 57.5507 63.3334 56.6667 63.3334H23.3333C22.4493 63.3334 21.6014 62.9822 20.9763 62.357C20.3512 61.7319 20 60.8841 20 60V20Z" fill="white" stroke="white" stroke-width="4"/>
<path d="M21.6667 37.5L32.3267 35.8167C35.6751 35.2883 38.743 33.6332 41.0233 31.125C42.5244 29.4739 44.3774 28.1813 46.4452 27.3427C48.5131 26.5041 50.7429 26.1409 52.97 26.28L59.1667 26.6667M20.8333 54.1667L30.0883 53.7467C32.853 53.6209 35.537 52.7756 37.8749 51.2945C40.2128 49.8134 42.1236 47.7477 43.4183 45.3017C44.443 43.3666 45.8562 41.664 47.5695 40.3005C49.2828 38.9371 51.2593 37.9423 53.375 37.3783L59.1667 35.8333" stroke="black" stroke-width="4" stroke-linecap="round" stroke-linejoin="round"/>
<path d="M60 20V53.3333M20 26.6667V60" stroke="white" stroke-width="4" stroke-linecap="round" stroke-linejoin="round"/>
</mask>
<g mask="url(#mask0_274_85)">
<path d="M0 0H80V80H0V0Z" fill="#FF0000"/>
</g>
</svg>
