<svg width="55" height="52" viewBox="0 0 55 52" fill="none" xmlns="http://www.w3.org/2000/svg">
<path d="M17.875 4.33325H37.125C44.4583 4.33325 50.4167 9.96659 50.4167 16.8999V35.0999C50.4167 38.4328 49.0163 41.6292 46.5236 43.9859C44.031 46.3426 40.6502 47.6666 37.125 47.6666H17.875C10.5417 47.6666 4.58334 42.0333 4.58334 35.0999V16.8999C4.58334 13.567 5.98371 10.3707 8.47638 8.01394C10.9691 5.65724 14.3498 4.33325 17.875 4.33325ZM17.4167 8.66658C15.2286 8.66658 13.1302 9.48837 11.583 10.9512C10.0359 12.4139 9.16668 14.3979 9.16668 16.4666V35.5332C9.16668 39.8449 12.8563 43.3332 17.4167 43.3332H37.5833C39.7714 43.3332 41.8698 42.5115 43.417 41.0487C44.9641 39.5859 45.8333 37.6019 45.8333 35.5332V16.4666C45.8333 12.1549 42.1438 8.66658 37.5833 8.66658H17.4167ZM39.5313 11.9166C40.291 11.9166 41.0196 12.2019 41.5568 12.7098C42.094 13.2177 42.3958 13.9066 42.3958 14.6249C42.3958 15.3432 42.094 16.0321 41.5568 16.54C41.0196 17.0479 40.291 17.3333 39.5313 17.3333C38.7715 17.3333 38.0429 17.0479 37.5057 16.54C36.9685 16.0321 36.6667 15.3432 36.6667 14.6249C36.6667 13.9066 36.9685 13.2177 37.5057 12.7098C38.0429 12.2019 38.7715 11.9166 39.5313 11.9166ZM27.5 15.1666C30.5389 15.1666 33.4534 16.308 35.6023 18.3396C37.7511 20.3712 38.9583 23.1267 38.9583 25.9999C38.9583 28.8731 37.7511 31.6286 35.6023 33.6602C33.4534 35.6919 30.5389 36.8332 27.5 36.8332C24.4611 36.8332 21.5466 35.6919 19.3977 33.6602C17.2489 31.6286 16.0417 28.8731 16.0417 25.9999C16.0417 23.1267 17.2489 20.3712 19.3977 18.3396C21.5466 16.308 24.4611 15.1666 27.5 15.1666ZM27.5 19.4999C25.6766 19.4999 23.928 20.1847 22.6386 21.4037C21.3493 22.6227 20.625 24.276 20.625 25.9999C20.625 27.7238 21.3493 29.3771 22.6386 30.5961C23.928 31.8151 25.6766 32.4999 27.5 32.4999C29.3234 32.4999 31.0721 31.8151 32.3614 30.5961C33.6507 29.3771 34.375 27.7238 34.375 25.9999C34.375 24.276 33.6507 22.6227 32.3614 21.4037C31.0721 20.1847 29.3234 19.4999 27.5 19.4999Z" fill="#C90000"/>
</svg>
