<svg width="78" height="62" viewBox="0 0 78 62" fill="none" xmlns="http://www.w3.org/2000/svg">
<g clip-path="url(#clip0_277_458)">
<path d="M65.8845 0H12.1155C8.90227 0 5.82065 1.28452 3.54855 3.57099C1.27645 5.85746 0 8.95858 0 12.1921L0 49.8159C-3.42433e-07 51.4166 0.313434 53.0016 0.922392 54.4804C1.53135 55.9591 2.4239 57.3027 3.54903 58.4342C4.67416 59.5657 6.00983 60.463 7.4797 61.0748C8.94957 61.6867 10.5248 62.0011 12.1155 62H65.8845C67.4752 62.0011 69.0504 61.6867 70.5203 61.0748C71.9902 60.463 73.3258 59.5657 74.451 58.4342C75.5761 57.3027 76.4686 55.9591 77.0776 54.4804C77.6866 53.0016 78 51.4166 78 49.8159V12.1921C78 8.95858 76.7236 5.85746 74.4515 3.57099C72.1794 1.28452 69.0977 0 65.8845 0ZM61.8486 13.6792C61.9537 13.5584 62.0818 13.4602 62.2254 13.3902C62.3689 13.3202 62.5249 13.2799 62.6842 13.2717C62.8435 13.2635 63.0028 13.2875 63.1527 13.3424C63.3025 13.3973 63.4399 13.4819 63.5567 13.5912L66.9094 16.6053C67.0255 16.71 67.12 16.8369 67.1873 16.9785C67.2546 17.1201 67.2934 17.2737 67.3016 17.4305C67.3097 17.5872 67.2869 17.7441 67.2346 17.8919C67.1823 18.0398 67.1015 18.1759 66.9967 18.2922C66.8932 18.4097 66.7676 18.5054 66.6271 18.5738C66.4867 18.6423 66.3342 18.6821 66.1784 18.691C66.0226 18.6999 65.8666 18.6778 65.7194 18.6258C65.5721 18.5738 65.4366 18.493 65.3204 18.3881L61.9678 15.3741C61.8491 15.2708 61.7519 15.145 61.6817 15.0039C61.6114 14.8627 61.5696 14.709 61.5585 14.5515C61.5474 14.3941 61.5673 14.2359 61.6171 14.0862C61.6669 13.9365 61.7456 13.7982 61.8486 13.6792ZM55.6121 8.24268C55.7164 8.12496 55.8427 8.02908 55.9838 7.96053C56.1249 7.89198 56.2781 7.85211 56.4345 7.8432C56.5909 7.83429 56.7476 7.85651 56.8955 7.9086C57.0434 7.96069 57.1796 8.04161 57.2964 8.14674L60.6252 11.1928C60.8056 11.3546 60.933 11.5678 60.9902 11.8041C61.0475 12.0404 61.032 12.2886 60.9458 12.5158C60.8596 12.7431 60.7068 12.9386 60.5077 13.0764C60.3085 13.2142 60.0724 13.2878 59.8307 13.2874C59.5383 13.2849 59.2565 13.1772 59.0363 12.9836L55.6916 9.93759C55.5757 9.83159 55.4817 9.70365 55.415 9.56108C55.3483 9.41851 55.3102 9.26411 55.3028 9.1067C55.2954 8.9493 55.3189 8.79197 55.372 8.64371C55.4251 8.49546 55.5067 8.35919 55.6121 8.24268ZM53.2288 11.4406C53.3237 11.3259 53.4402 11.2312 53.5718 11.1622C53.7033 11.0931 53.8472 11.051 53.995 11.0384C54.1428 11.0258 54.2917 11.0428 54.4329 11.0885C54.5741 11.1342 54.7049 11.2077 54.8177 11.3047L64.3512 19.3715C64.4662 19.4663 64.5611 19.5834 64.6303 19.7158C64.6995 19.8482 64.7417 19.9932 64.7543 20.1423C64.7669 20.2913 64.7496 20.4414 64.7036 20.5837C64.6576 20.7259 64.5837 20.8575 64.4862 20.9705C64.3843 21.0986 64.2549 21.2018 64.1077 21.2724C63.9605 21.3431 63.7993 21.3792 63.6362 21.3782C63.3722 21.3768 63.1167 21.2836 62.9132 21.1144L53.3797 13.0636C53.2645 12.9692 53.1691 12.8528 53.0991 12.721C53.029 12.5892 52.9857 12.4447 52.9717 12.2959C52.9576 12.1471 52.9731 11.997 53.0172 11.8543C53.0614 11.7115 53.1333 11.5791 53.2288 11.4646V11.4406ZM56.8118 41.6371L59.5844 38.1594C59.6825 38.0365 59.8037 37.9343 59.941 37.8586C60.0783 37.7829 60.2291 37.7351 60.3847 37.7181C60.5404 37.701 60.6979 37.7149 60.8482 37.7591C60.9985 37.8033 61.1387 37.8768 61.2607 37.9755C61.3828 38.0742 61.4844 38.1961 61.5596 38.3343C61.6349 38.4725 61.6823 38.6242 61.6993 38.7809C61.7163 38.9375 61.7024 39.096 61.6585 39.2472C61.6146 39.3985 61.5415 39.5396 61.4435 39.6624L58.6788 43.1721C58.567 43.312 58.4254 43.4249 58.2646 43.5023C58.1037 43.5798 57.9276 43.62 57.7492 43.6199C57.5244 43.62 57.3042 43.5562 57.1139 43.4357C56.9236 43.3153 56.771 43.1431 56.6738 42.9391C56.5766 42.7352 56.5388 42.5077 56.5646 42.2829C56.5904 42.0582 56.6788 41.8454 56.8197 41.6691L56.8118 41.6371ZM56.8833 19.6513C57.0903 19.4125 57.3828 19.2659 57.6969 19.2434C58.0109 19.2209 58.3211 19.3245 58.5596 19.5314L61.9678 22.5295C62.0862 22.6345 62.1829 22.7619 62.2524 22.9045C62.3219 23.0471 62.3628 23.2021 62.3727 23.3606C62.3827 23.5191 62.3615 23.678 62.3105 23.8283C62.2594 23.9785 62.1794 24.1172 62.0751 24.2364C61.9707 24.3555 61.8441 24.4528 61.7024 24.5228C61.5607 24.5927 61.4067 24.6338 61.2492 24.6438C61.0917 24.6539 60.9338 24.6326 60.7844 24.5812C60.6351 24.5298 60.4973 24.4493 60.3789 24.3443L56.9786 21.3702C56.8622 21.2648 56.7676 21.1372 56.7001 20.995C56.6327 20.8527 56.5939 20.6984 56.5857 20.541C56.5776 20.3836 56.6004 20.2261 56.6528 20.0775C56.7053 19.929 56.7863 19.7923 56.8912 19.6753L56.8833 19.6513ZM59.648 43.9716L62.4445 40.4699C62.5425 40.347 62.6636 40.2447 62.801 40.1689C62.9383 40.0932 63.0891 40.0454 63.2448 40.0283C63.4005 40.0112 63.558 40.0252 63.7083 40.0694C63.8586 40.1136 63.9988 40.1872 64.1208 40.286C64.3657 40.4864 64.5222 40.7759 64.5564 41.0917C64.5906 41.4075 64.4997 41.7241 64.3035 41.9729L61.507 45.4747C61.409 45.5975 61.2878 45.6997 61.1505 45.7754C61.0132 45.8511 60.8624 45.8989 60.7067 45.916C60.5511 45.933 60.3936 45.9191 60.2433 45.8749C60.093 45.8308 59.9528 45.7572 59.8307 45.6585C59.7087 45.5599 59.6071 45.4379 59.5319 45.2997C59.4566 45.1616 59.4091 45.0098 59.3922 44.8532C59.3752 44.6965 59.3891 44.5381 59.433 44.3868C59.4769 44.2355 59.5499 44.0945 59.648 43.9716ZM50.5276 14.3028C50.6302 14.1834 50.7552 14.0855 50.8955 14.0148C51.0357 13.9441 51.1885 13.902 51.345 13.8909C51.5015 13.8797 51.6586 13.8998 51.8073 13.9499C51.9561 14 52.0936 14.0792 52.2119 14.1828L55.6121 17.1569C55.8513 17.369 55.9969 17.6679 56.0171 17.988C56.0372 18.3081 55.9301 18.6232 55.7194 18.8638C55.5087 19.1045 55.2116 19.2511 54.8935 19.2713C54.5754 19.2915 54.2624 19.1838 54.0232 18.9718L50.6468 15.9897C50.5284 15.8871 50.4313 15.762 50.3611 15.6216C50.291 15.4811 50.2492 15.328 50.2381 15.1712C50.227 15.0144 50.2469 14.8569 50.2966 14.7079C50.3463 14.5588 50.4248 14.4211 50.5276 14.3028ZM39.0953 17.5007C42.6535 17.5028 46.0653 18.9262 48.5813 21.4581C51.0972 23.99 52.5116 27.4234 52.5137 31.004C49.1929 28.4137 46.1581 27.2464 43.5681 27.5742C42.5738 27.7139 41.6203 28.0649 40.7711 28.6039C39.9219 29.1428 39.1963 29.8574 38.6425 30.7002C36.5292 33.6343 34.265 35.0734 31.9452 34.9934C29.3791 34.8975 27.1387 32.9947 25.6928 31.3957C25.6928 31.2518 25.6928 31.1079 25.6928 30.964C25.7033 27.3917 27.1192 23.9689 29.6309 21.4444C32.1425 18.9199 35.5454 17.499 39.0953 17.4927V17.5007ZM27.3691 14.0789C27.586 14.299 27.7077 14.5964 27.7077 14.9064C27.7077 15.2163 27.586 15.5137 27.3691 15.7338L17.7879 25.3277C17.5775 25.5417 17.2926 25.665 16.9935 25.6714C16.7651 25.6654 16.5434 25.5921 16.356 25.4606C16.1686 25.3291 16.0236 25.1452 15.9391 24.9316C15.8545 24.718 15.8341 24.4841 15.8803 24.2589C15.9265 24.0337 16.0373 23.8272 16.199 23.6647L25.7802 14.0709C25.9972 13.8703 26.2815 13.7596 26.5762 13.7611C26.8709 13.7626 27.1541 13.8761 27.3691 14.0789ZM18.8207 45.3228C18.91 45.427 18.9776 45.5482 19.0196 45.6791C19.0616 45.8101 19.0771 45.9482 19.0653 46.0852C19.0534 46.2223 19.0145 46.3556 18.9506 46.4773C18.8868 46.599 18.7994 46.7066 18.6936 46.7938C18.5067 46.9521 18.2706 47.0398 18.0263 47.0417C17.8746 47.0416 17.7247 47.0079 17.5874 46.9429C17.4501 46.878 17.3287 46.7834 17.2318 46.6659L14.3003 43.1721C14.148 42.9577 14.0817 42.6933 14.1146 42.4318C14.1475 42.1703 14.2771 41.9309 14.4777 41.7614C14.6782 41.5918 14.935 41.5046 15.1966 41.5172C15.4582 41.5297 15.7055 41.6411 15.8892 41.829L18.8207 45.3228ZM24.382 11.0489C24.4905 11.158 24.5767 11.2876 24.6354 11.4303C24.6942 11.573 24.7244 11.7259 24.7244 11.8803C24.7244 12.0348 24.6942 12.1877 24.6354 12.3304C24.5767 12.473 24.4905 12.6027 24.382 12.7118L14.8484 22.3056C14.6354 22.5147 14.3515 22.6347 14.054 22.6414C13.8255 22.6375 13.6033 22.5659 13.4151 22.4353C13.227 22.3048 13.0814 22.1213 12.9965 21.9078C12.9116 21.6943 12.8913 21.4603 12.9381 21.2353C12.9849 21.0102 13.0967 20.804 13.2595 20.6427L22.8328 11.0489C23.0471 10.86 23.3224 10.7558 23.6074 10.7558C23.8923 10.7558 24.1676 10.86 24.382 11.0489ZM10.1532 19.2676C10.0449 19.1591 9.95889 19.0302 9.90023 18.8882C9.84157 18.7462 9.81137 18.5939 9.81137 18.4401C9.81137 18.2863 9.84157 18.134 9.90023 17.992C9.95889 17.85 10.0449 17.7211 10.1532 17.6126L19.7344 7.99484C19.9576 7.79711 20.2473 7.69251 20.5446 7.70238C20.8418 7.71225 21.124 7.83585 21.3338 8.04797C21.5436 8.26008 21.665 8.54474 21.6734 8.84388C21.6818 9.14301 21.5765 9.4341 21.3789 9.65777L11.7977 19.2516C11.6905 19.3616 11.5625 19.4489 11.4213 19.5086C11.2802 19.5682 11.1286 19.5989 10.9755 19.5989C10.8223 19.5989 10.6707 19.5682 10.5296 19.5086C10.3884 19.4489 10.2604 19.3616 10.1532 19.2516V19.2676ZM21.1723 55.4602C20.9418 55.6511 20.6459 55.7431 20.3486 55.7161C20.0512 55.6892 19.7764 55.5456 19.5834 55.3163L11.6388 45.7225C11.4609 45.4921 11.3786 45.2012 11.4094 44.9111C11.4401 44.6209 11.5815 44.3541 11.8038 44.1666C12.026 43.9792 12.3118 43.8858 12.6011 43.9061C12.8904 43.9264 13.1606 44.0588 13.3549 44.2754L21.2994 53.8692C21.3951 53.982 21.4677 54.1127 21.513 54.2537C21.5584 54.3948 21.5757 54.5435 21.5639 54.6913C21.5521 54.8391 21.5114 54.983 21.4442 55.115C21.377 55.2469 21.2846 55.3643 21.1723 55.4602ZM24.1277 53.1177C23.9411 53.2767 23.7049 53.3644 23.4604 53.3656C23.3086 53.3661 23.1585 53.3326 23.0211 53.2676C22.8838 53.2026 22.7624 53.1077 22.6659 52.9898L19.7582 49.52C19.6059 49.3056 19.5396 49.0412 19.5725 48.7797C19.6054 48.5182 19.7351 48.2788 19.9356 48.1093C20.1362 47.9397 20.3929 47.8525 20.6545 47.8651C20.9162 47.8776 21.1635 47.989 21.3471 48.1769L24.2469 51.6467C24.424 51.8581 24.5109 52.1313 24.4886 52.4069C24.4662 52.6825 24.3365 52.938 24.1277 53.1177ZM26.6382 50.8632C26.4385 51.0337 26.1851 51.1272 25.9232 51.127C25.7594 51.1253 25.598 51.088 25.4499 51.0176C25.3018 50.9472 25.1705 50.8455 25.0652 50.7193L17.1206 41.1255C16.9426 40.8951 16.8604 40.6042 16.8911 40.314C16.9219 40.0239 17.0633 39.757 17.2855 39.5696C17.5078 39.3822 17.7936 39.2888 18.0829 39.3091C18.3722 39.3294 18.6424 39.4618 18.8366 39.6784L26.7812 49.2722C26.8769 49.3855 26.9492 49.5169 26.9939 49.6587C27.0386 49.8005 27.0548 49.9498 27.0414 50.0979C27.0281 50.246 26.9856 50.39 26.9164 50.5214C26.8471 50.6528 26.7526 50.769 26.6382 50.8632ZM39.0953 44.5073C36.054 44.5068 33.1032 43.466 30.727 41.5557C28.3509 39.6453 26.6906 36.979 26.0185 33.9941C27.6213 35.5137 29.6876 36.4434 31.8816 36.6324H32.1438C34.9403 36.6324 37.5541 34.9694 39.9295 31.6756C40.3541 31.0105 40.9157 30.445 41.5764 30.0174C42.2371 29.5898 42.9813 29.3101 43.7588 29.1972C46.1422 28.9014 49.042 30.1645 52.3549 32.9547C51.8928 36.1623 50.2985 39.0952 47.8636 41.2166C45.4287 43.3381 42.316 44.5062 39.0953 44.5073ZM52.6488 50.1596C52.4233 50.1615 52.202 50.0985 52.0109 49.9781C51.8198 49.8577 51.6669 49.6848 51.5701 49.4799C51.4732 49.275 51.4366 49.0465 51.4645 48.8213C51.4923 48.5962 51.5835 48.3837 51.7272 48.2089L54.5237 44.7072C54.7218 44.4559 55.0109 44.2941 55.3275 44.2574C55.6441 44.2206 55.9623 44.312 56.212 44.5113C56.4616 44.7106 56.6224 45.0016 56.6589 45.3202C56.6954 45.6388 56.6047 45.9589 56.4066 46.2102L53.6101 49.7119C53.4959 49.857 53.3494 49.9731 53.1824 50.0509C53.0154 50.1286 52.8327 50.1659 52.6488 50.1596ZM55.4771 52.4302C55.2058 52.4292 54.9427 52.3362 54.7303 52.1663C54.6082 52.0677 54.5065 51.9458 54.4312 51.8076C54.3559 51.6694 54.3085 51.5177 54.2915 51.361C54.2745 51.2043 54.2884 51.0458 54.3323 50.8946C54.3763 50.7433 54.4494 50.6022 54.5476 50.4794L57.3441 46.9777C57.5421 46.7296 57.83 46.5709 58.1444 46.5364C58.4587 46.5019 58.7738 46.5945 59.0204 46.7938C59.2669 46.9931 59.4246 47.2828 59.4589 47.5992C59.4932 47.9155 59.4012 48.2326 59.2031 48.4807L56.4066 51.9665C56.2964 52.1093 56.1556 52.2252 55.9946 52.3055C55.8337 52.3858 55.6567 52.4284 55.4771 52.4302ZM62.0234 50.7433L59.2269 54.245C59.1152 54.3849 58.9736 54.4977 58.8128 54.5752C58.6519 54.6527 58.4758 54.6928 58.2974 54.6927C58.0261 54.6917 57.763 54.5988 57.5506 54.4289C57.3109 54.2303 57.1576 53.9454 57.1235 53.6348C57.0894 53.3242 57.1771 53.0125 57.3679 52.766L60.1644 49.2642C60.3636 49.0178 60.6512 48.8603 60.965 48.8259C61.2788 48.7915 61.5934 48.8829 61.8407 49.0803C62.0804 49.2789 62.2337 49.5638 62.2678 49.8744C62.302 50.185 62.2143 50.4968 62.0234 50.7433ZM67.1239 44.1955L64.3512 47.6972C64.2531 47.8201 64.132 47.9223 63.9947 47.998C63.8573 48.0737 63.7065 48.1215 63.5509 48.1385C63.3952 48.1556 63.2377 48.1417 63.0874 48.0975C62.9371 48.0533 62.7969 47.9798 62.6749 47.8811C62.5528 47.7824 62.4513 47.6605 62.376 47.5223C62.3008 47.3841 62.2533 47.2324 62.2363 47.0757C62.2194 46.9191 62.2332 46.7606 62.2771 46.6094C62.321 46.4581 62.3941 46.317 62.4922 46.1942L65.2887 42.6925C65.3867 42.5696 65.5079 42.4674 65.6452 42.3917C65.7825 42.316 65.9333 42.2682 66.089 42.2511C66.2446 42.2341 66.4021 42.248 66.5524 42.2922C66.7027 42.3364 66.8429 42.4099 66.965 42.5086C67.087 42.6073 67.1886 42.7292 67.2638 42.8674C67.3391 43.0056 67.3865 43.1573 67.4035 43.3139C67.4205 43.4706 67.4066 43.6291 67.3627 43.7803C67.3188 43.9316 67.2458 44.0726 67.1477 44.1955H67.1239Z" fill="#FF0000"/>
</g>
<defs>
<clipPath id="clip0_277_458">
<rect width="78" height="62" fill="white"/>
</clipPath>
</defs>
</svg>
