<svg width="80" height="80" viewBox="0 0 80 80" fill="none" xmlns="http://www.w3.org/2000/svg">
<path d="M40 6.66666C21.62 6.66666 6.66666 21.62 6.66666 40C6.66666 58.38 21.62 73.3333 40 73.3333C58.38 73.3333 73.3333 58.38 73.3333 40C73.3333 21.62 58.38 6.66666 40 6.66666ZM13.3333 40C13.3333 37.0033 13.8533 34.1267 14.77 31.4367L20 36.6667L26.6667 43.3333V50L33.3333 56.6667L36.6667 60V66.4367C23.5367 64.7867 13.3333 53.5733 13.3333 40ZM61.1 56.2433C58.9233 54.49 55.6233 53.3333 53.3333 53.3333V50C53.3333 48.2319 52.6309 46.5362 51.3807 45.2859C50.1305 44.0357 48.4348 43.3333 46.6667 43.3333H33.3333V33.3333C35.1014 33.3333 36.7971 32.6309 38.0474 31.3807C39.2976 30.1305 40 28.4348 40 26.6667V23.3333H43.3333C45.1014 23.3333 46.7971 22.6309 48.0474 21.3807C49.2976 20.1305 50 18.4348 50 16.6667V15.2967C59.76 19.26 66.6667 28.8333 66.6667 40C66.666 45.8823 64.7076 51.5971 61.1 56.2433Z" fill="#FF0000"/>
</svg>
