<svg width="40" height="41" viewBox="0 0 40 41" fill="none" xmlns="http://www.w3.org/2000/svg">
<path d="M34.5946 11.9468C33.5202 12.4364 32.3621 12.7582 31.1622 12.9121C32.39 12.1706 33.3388 10.9954 33.7853 9.58239C32.6272 10.2819 31.3436 10.7716 29.9902 11.0514C28.8879 9.8482 27.3391 9.14868 25.5811 9.14868C22.3022 9.14868 19.6233 11.8349 19.6233 15.1506C19.6233 15.6263 19.6791 16.088 19.7767 16.5217C14.8096 16.2698 10.3865 13.8775 7.4425 10.2539C6.92625 11.1353 6.63324 12.1706 6.63324 13.2619C6.63324 15.3465 7.6797 17.1932 9.29822 18.2425C8.30757 18.2425 7.38669 17.9627 6.57743 17.543V17.5849C6.57743 20.4949 8.64244 22.9293 11.3772 23.4749C10.4992 23.7158 9.57741 23.7494 8.6843 23.5728C9.06326 24.7655 9.80545 25.8091 10.8065 26.5569C11.8076 27.3047 13.0173 27.7192 14.2654 27.742C12.1496 29.4215 9.52704 30.3293 6.82858 30.3162C6.35418 30.3162 5.87979 30.2883 5.4054 30.2323C8.05642 31.9391 11.2097 32.9325 14.5863 32.9325C25.5811 32.9325 31.6226 23.7827 31.6226 15.8501C31.6226 15.5843 31.6226 15.3325 31.6087 15.0666C32.7807 14.2272 33.7853 13.1639 34.5946 11.9468Z" fill="white"/>
</svg>
