<svg width="40" height="41" viewBox="0 0 40 41" fill="none" xmlns="http://www.w3.org/2000/svg">
<path d="M14.3243 6.98657H25.6756C30 6.98657 33.5135 10.5001 33.5135 14.8244V26.1758C33.5135 28.2545 32.6877 30.2481 31.2178 31.718C29.7479 33.1878 27.7544 34.0136 25.6756 34.0136H14.3243C9.99996 34.0136 6.48645 30.5001 6.48645 26.1758V14.8244C6.48645 12.7457 7.31222 10.7521 8.7821 9.28222C10.252 7.81234 12.2456 6.98657 14.3243 6.98657ZM14.054 9.68928C12.7638 9.68928 11.5264 10.2018 10.614 11.1142C9.7017 12.0265 9.18915 13.2639 9.18915 14.5541V26.446C9.18915 29.1352 11.3648 31.3109 14.054 31.3109H25.9459C27.2362 31.3109 28.4736 30.7984 29.3859 29.886C30.2982 28.9737 30.8108 27.7363 30.8108 26.446V14.5541C30.8108 11.865 28.6351 9.68928 25.9459 9.68928H14.054ZM27.0946 11.7163C27.5426 11.7163 27.9722 11.8943 28.289 12.2111C28.6058 12.5278 28.7837 12.9575 28.7837 13.4055C28.7837 13.8535 28.6058 14.2831 28.289 14.5999C27.9722 14.9167 27.5426 15.0947 27.0946 15.0947C26.6466 15.0947 26.2169 14.9167 25.9001 14.5999C25.5833 14.2831 25.4054 13.8535 25.4054 13.4055C25.4054 12.9575 25.5833 12.5278 25.9001 12.2111C26.2169 11.8943 26.6466 11.7163 27.0946 11.7163ZM20 13.7433C21.792 13.7433 23.5106 14.4552 24.7777 15.7223C26.0449 16.9895 26.7567 18.7081 26.7567 20.5001C26.7567 22.2921 26.0449 24.0107 24.7777 25.2778C23.5106 26.545 21.792 27.2568 20 27.2568C18.208 27.2568 16.4894 26.545 15.2222 25.2778C13.9551 24.0107 13.2432 22.2921 13.2432 20.5001C13.2432 18.7081 13.9551 16.9895 15.2222 15.7223C16.4894 14.4552 18.208 13.7433 20 13.7433ZM20 16.446C18.9248 16.446 17.8936 16.8732 17.1333 17.6334C16.373 18.3937 15.9459 19.4249 15.9459 20.5001C15.9459 21.5753 16.373 22.6065 17.1333 23.3667C17.8936 24.127 18.9248 24.5541 20 24.5541C21.0752 24.5541 22.1063 24.127 22.8666 23.3667C23.6269 22.6065 24.054 21.5753 24.054 20.5001C24.054 19.4249 23.6269 18.3937 22.8666 17.6334C22.1063 16.8732 21.0752 16.446 20 16.446Z" fill="white"/>
</svg>
