<svg width="40" height="41" viewBox="0 0 40 41" fill="none" xmlns="http://www.w3.org/2000/svg">
<path d="M16.6668 25.5002L25.3168 20.5002L16.6668 15.5002V25.5002ZM35.9334 12.4502C36.1501 13.2335 36.3001 14.2835 36.4001 15.6168C36.5168 16.9502 36.5668 18.1002 36.5668 19.1002L36.6668 20.5002C36.6668 24.1502 36.4001 26.8335 35.9334 28.5502C35.5168 30.0502 34.5501 31.0168 33.0501 31.4335C32.2668 31.6502 30.8334 31.8002 28.6334 31.9002C26.4668 32.0168 24.4834 32.0668 22.6501 32.0668L20.0001 32.1668C13.0168 32.1668 8.66677 31.9002 6.9501 31.4335C5.4501 31.0168 4.48344 30.0502 4.06677 28.5502C3.8501 27.7668 3.7001 26.7168 3.6001 25.3835C3.48344 24.0502 3.43343 22.9002 3.43343 21.9002L3.33344 20.5002C3.33344 16.8502 3.6001 14.1668 4.06677 12.4502C4.48344 10.9502 5.4501 9.9835 6.9501 9.56683C7.73344 9.35016 9.16677 9.20016 11.3668 9.10016C13.5334 8.9835 15.5168 8.9335 17.3501 8.9335L20.0001 8.8335C26.9834 8.8335 31.3334 9.10016 33.0501 9.56683C34.5501 9.9835 35.5168 10.9502 35.9334 12.4502Z" fill="white"/>
</svg>
